<svg width="276" height="166" viewBox="0 0 276 166" fill="none" xmlns="http://www.w3.org/2000/svg">
<g filter="url(#filter0_d_1_662)">
<rect x="20" y="16" width="235.824" height="126" rx="10" fill="white"/>
<rect x="20.5" y="16.5" width="234.824" height="125" rx="9.5" stroke="#005FB8"/>
</g>
<g filter="url(#filter1_d_1_662)">
<path d="M20 26C20 20.4772 24.4772 16 30 16H245.824C251.347 16 255.824 20.4772 255.824 26V35.1554H20V26Z" fill="#005FB8"/>
</g>
<line x1="165.932" y1="35.1554" x2="165.932" y2="16" stroke="white"/>
<line x1="209.351" y1="35.1554" x2="209.351" y2="16" stroke="white"/>
<line x1="73.5608" y1="35.1554" x2="73.5608" y2="16" stroke="white"/>
<line x1="67.6757" y1="23.3851" x2="28.0878" y2="23.3851" stroke="white" stroke-width="2"/>
<line x1="67.6757" y1="26.3649" x2="28.0878" y2="26.3649" stroke="white" stroke-width="2"/>
<line x1="67.6757" y1="29.7703" x2="28.0878" y2="29.7703" stroke="white" stroke-width="2"/>
<line x1="119.182" y1="23.3851" x2="79.5947" y2="23.3851" stroke="white" stroke-width="2"/>
<line x1="119.182" y1="26.3649" x2="79.5947" y2="26.3649" stroke="white" stroke-width="2"/>
<line x1="119.182" y1="29.7703" x2="79.5947" y2="29.7703" stroke="white" stroke-width="2"/>
<line x1="160.899" y1="23.3851" x2="129.824" y2="23.3851" stroke="white" stroke-width="2"/>
<line x1="160.899" y1="26.3649" x2="129.824" y2="26.3649" stroke="white" stroke-width="2"/>
<line x1="160.899" y1="29.7703" x2="129.824" y2="29.7703" stroke="white" stroke-width="2"/>
<line x1="203.041" y1="23.3851" x2="171.966" y2="23.3851" stroke="white" stroke-width="2"/>
<line x1="203.041" y1="26.3649" x2="171.966" y2="26.3649" stroke="white" stroke-width="2"/>
<line x1="203.041" y1="29.7703" x2="171.966" y2="29.7703" stroke="white" stroke-width="2"/>
<line x1="249.014" y1="23.3851" x2="217.939" y2="23.3851" stroke="white" stroke-width="2"/>
<line x1="249.014" y1="26.3649" x2="217.939" y2="26.3649" stroke="white" stroke-width="2"/>
<line x1="249.014" y1="29.7703" x2="217.939" y2="29.7703" stroke="white" stroke-width="2"/>
<line x1="67.6757" y1="45.946" x2="28.0878" y2="45.946" stroke="black" stroke-width="2"/>
<line x1="67.6757" y1="48.9257" x2="28.0878" y2="48.9257" stroke="black" stroke-width="2"/>
<line x1="67.6757" y1="52.3311" x2="28.0878" y2="52.3311" stroke="black" stroke-width="2"/>
<line x1="119.182" y1="45.946" x2="79.5945" y2="45.946" stroke="black" stroke-width="2"/>
<line x1="119.182" y1="48.9257" x2="79.5945" y2="48.9257" stroke="black" stroke-width="2"/>
<line x1="119.182" y1="52.3311" x2="79.5945" y2="52.3311" stroke="black" stroke-width="2"/>
<line x1="160.899" y1="45.946" x2="129.824" y2="45.946" stroke="black" stroke-width="2"/>
<line x1="160.899" y1="48.9257" x2="129.824" y2="48.9257" stroke="black" stroke-width="2"/>
<line x1="160.899" y1="52.3311" x2="129.824" y2="52.3311" stroke="black" stroke-width="2"/>
<line x1="203.041" y1="45.946" x2="171.966" y2="45.946" stroke="black" stroke-width="2"/>
<line x1="203.041" y1="48.9257" x2="171.966" y2="48.9257" stroke="black" stroke-width="2"/>
<line x1="203.041" y1="52.3311" x2="171.966" y2="52.3311" stroke="black" stroke-width="2"/>
<line x1="249.013" y1="45.946" x2="217.939" y2="45.946" stroke="black" stroke-width="2"/>
<line x1="249.013" y1="48.9257" x2="217.939" y2="48.9257" stroke="black" stroke-width="2"/>
<line x1="249.013" y1="52.3311" x2="217.939" y2="52.3311" stroke="black" stroke-width="2"/>
<line x1="67.6757" y1="62.9729" x2="28.0878" y2="62.9729" stroke="black" stroke-width="2"/>
<line x1="67.6757" y1="65.9527" x2="28.0878" y2="65.9527" stroke="black" stroke-width="2"/>
<line x1="67.6757" y1="69.3581" x2="28.0878" y2="69.3581" stroke="black" stroke-width="2"/>
<line x1="119.182" y1="62.9729" x2="79.5945" y2="62.9729" stroke="black" stroke-width="2"/>
<line x1="119.182" y1="65.9526" x2="79.5945" y2="65.9526" stroke="black" stroke-width="2"/>
<line x1="119.182" y1="69.358" x2="79.5945" y2="69.358" stroke="black" stroke-width="2"/>
<line x1="160.899" y1="62.9729" x2="129.824" y2="62.9729" stroke="black" stroke-width="2"/>
<line x1="160.899" y1="65.9526" x2="129.824" y2="65.9526" stroke="black" stroke-width="2"/>
<line x1="160.899" y1="69.358" x2="129.824" y2="69.358" stroke="black" stroke-width="2"/>
<line x1="203.041" y1="62.9729" x2="171.966" y2="62.9729" stroke="black" stroke-width="2"/>
<line x1="203.041" y1="65.9526" x2="171.966" y2="65.9526" stroke="black" stroke-width="2"/>
<line x1="203.041" y1="69.358" x2="171.966" y2="69.358" stroke="black" stroke-width="2"/>
<line x1="249.013" y1="62.9729" x2="217.939" y2="62.9729" stroke="black" stroke-width="2"/>
<line x1="249.013" y1="65.9526" x2="217.939" y2="65.9526" stroke="black" stroke-width="2"/>
<line x1="249.013" y1="69.358" x2="217.939" y2="69.358" stroke="black" stroke-width="2"/>
<line x1="67.6757" y1="79.1486" x2="28.0878" y2="79.1486" stroke="black" stroke-width="2"/>
<line x1="67.6757" y1="82.1284" x2="28.0878" y2="82.1284" stroke="black" stroke-width="2"/>
<line x1="67.6757" y1="85.5338" x2="28.0878" y2="85.5338" stroke="black" stroke-width="2"/>
<line x1="119.182" y1="79.1486" x2="79.5945" y2="79.1486" stroke="black" stroke-width="2"/>
<line x1="119.182" y1="82.1283" x2="79.5945" y2="82.1283" stroke="black" stroke-width="2"/>
<line x1="119.182" y1="85.5337" x2="79.5945" y2="85.5337" stroke="black" stroke-width="2"/>
<line x1="160.899" y1="79.1486" x2="129.824" y2="79.1486" stroke="black" stroke-width="2"/>
<line x1="160.899" y1="82.1283" x2="129.824" y2="82.1283" stroke="black" stroke-width="2"/>
<line x1="160.899" y1="85.5337" x2="129.824" y2="85.5337" stroke="black" stroke-width="2"/>
<line x1="203.041" y1="79.1486" x2="171.966" y2="79.1486" stroke="black" stroke-width="2"/>
<line x1="203.041" y1="82.1283" x2="171.966" y2="82.1283" stroke="black" stroke-width="2"/>
<line x1="203.041" y1="85.5337" x2="171.966" y2="85.5337" stroke="black" stroke-width="2"/>
<line x1="249.013" y1="79.1486" x2="217.939" y2="79.1486" stroke="black" stroke-width="2"/>
<line x1="249.013" y1="82.1283" x2="217.939" y2="82.1283" stroke="black" stroke-width="2"/>
<line x1="249.013" y1="85.5337" x2="217.939" y2="85.5337" stroke="black" stroke-width="2"/>
<line x1="67.6757" y1="95.3243" x2="28.0878" y2="95.3243" stroke="black" stroke-width="2"/>
<line x1="67.6757" y1="98.304" x2="28.0878" y2="98.304" stroke="black" stroke-width="2"/>
<line x1="67.6757" y1="101.709" x2="28.0878" y2="101.709" stroke="black" stroke-width="2"/>
<line x1="119.182" y1="95.3243" x2="79.5945" y2="95.3243" stroke="black" stroke-width="2"/>
<line x1="119.182" y1="98.304" x2="79.5945" y2="98.304" stroke="black" stroke-width="2"/>
<line x1="119.182" y1="101.709" x2="79.5945" y2="101.709" stroke="black" stroke-width="2"/>
<line x1="160.899" y1="95.3243" x2="129.824" y2="95.3243" stroke="black" stroke-width="2"/>
<line x1="160.899" y1="98.304" x2="129.824" y2="98.304" stroke="black" stroke-width="2"/>
<line x1="160.899" y1="101.709" x2="129.824" y2="101.709" stroke="black" stroke-width="2"/>
<line x1="203.041" y1="95.3243" x2="171.966" y2="95.3243" stroke="black" stroke-width="2"/>
<line x1="203.041" y1="98.304" x2="171.966" y2="98.304" stroke="black" stroke-width="2"/>
<line x1="203.041" y1="101.709" x2="171.966" y2="101.709" stroke="black" stroke-width="2"/>
<line x1="249.013" y1="95.3243" x2="217.939" y2="95.3243" stroke="black" stroke-width="2"/>
<line x1="249.013" y1="98.304" x2="217.939" y2="98.304" stroke="black" stroke-width="2"/>
<line x1="249.013" y1="101.709" x2="217.939" y2="101.709" stroke="black" stroke-width="2"/>
<line x1="67.6757" y1="111.5" x2="28.0878" y2="111.5" stroke="black" stroke-width="2"/>
<line x1="67.6757" y1="114.48" x2="28.0878" y2="114.48" stroke="black" stroke-width="2"/>
<line x1="67.6757" y1="117.885" x2="28.0878" y2="117.885" stroke="black" stroke-width="2"/>
<line x1="119.182" y1="111.5" x2="79.5945" y2="111.5" stroke="black" stroke-width="2"/>
<line x1="119.182" y1="114.48" x2="79.5945" y2="114.48" stroke="black" stroke-width="2"/>
<line x1="119.182" y1="117.885" x2="79.5945" y2="117.885" stroke="black" stroke-width="2"/>
<line x1="160.899" y1="111.5" x2="129.824" y2="111.5" stroke="black" stroke-width="2"/>
<line x1="160.899" y1="114.48" x2="129.824" y2="114.48" stroke="black" stroke-width="2"/>
<line x1="160.899" y1="117.885" x2="129.824" y2="117.885" stroke="black" stroke-width="2"/>
<line x1="203.041" y1="111.5" x2="171.966" y2="111.5" stroke="black" stroke-width="2"/>
<line x1="203.041" y1="114.48" x2="171.966" y2="114.48" stroke="black" stroke-width="2"/>
<line x1="203.041" y1="117.885" x2="171.966" y2="117.885" stroke="black" stroke-width="2"/>
<line x1="249.013" y1="111.5" x2="217.939" y2="111.5" stroke="black" stroke-width="2"/>
<line x1="249.013" y1="114.48" x2="217.939" y2="114.48" stroke="black" stroke-width="2"/>
<line x1="249.013" y1="117.885" x2="217.939" y2="117.885" stroke="black" stroke-width="2"/>
<line x1="67.6757" y1="127.676" x2="28.0878" y2="127.676" stroke="black" stroke-width="2"/>
<line x1="67.6757" y1="130.655" x2="28.0878" y2="130.655" stroke="black" stroke-width="2"/>
<line x1="67.6757" y1="134.061" x2="28.0878" y2="134.061" stroke="black" stroke-width="2"/>
<line x1="119.182" y1="127.676" x2="79.5945" y2="127.676" stroke="black" stroke-width="2"/>
<line x1="119.182" y1="130.655" x2="79.5945" y2="130.655" stroke="black" stroke-width="2"/>
<line x1="119.182" y1="134.061" x2="79.5945" y2="134.061" stroke="black" stroke-width="2"/>
<line x1="160.899" y1="127.676" x2="129.824" y2="127.676" stroke="black" stroke-width="2"/>
<line x1="160.899" y1="130.655" x2="129.824" y2="130.655" stroke="black" stroke-width="2"/>
<line x1="160.899" y1="134.061" x2="129.824" y2="134.061" stroke="black" stroke-width="2"/>
<line x1="203.041" y1="127.676" x2="171.966" y2="127.676" stroke="black" stroke-width="2"/>
<line x1="203.041" y1="130.655" x2="171.966" y2="130.655" stroke="black" stroke-width="2"/>
<line x1="203.041" y1="134.061" x2="171.966" y2="134.061" stroke="black" stroke-width="2"/>
<line x1="249.013" y1="127.676" x2="217.939" y2="127.676" stroke="black" stroke-width="2"/>
<line x1="249.013" y1="130.655" x2="217.939" y2="130.655" stroke="black" stroke-width="2"/>
<line x1="249.013" y1="134.061" x2="217.939" y2="134.061" stroke="black" stroke-width="2"/>
<line x1="124.216" y1="35.1554" x2="124.216" y2="16" stroke="white"/>
<defs>
<filter id="filter0_d_1_662" x="0" y="0" width="275.824" height="166" filterUnits="userSpaceOnUse" color-interpolation-filters="sRGB">
<feFlood flood-opacity="0" result="BackgroundImageFix"/>
<feColorMatrix in="SourceAlpha" type="matrix" values="0 0 0 0 0 0 0 0 0 0 0 0 0 0 0 0 0 0 127 0" result="hardAlpha"/>
<feOffset dy="4"/>
<feGaussianBlur stdDeviation="10"/>
<feComposite in2="hardAlpha" operator="out"/>
<feColorMatrix type="matrix" values="0 0 0 0 0 0 0 0 0 0 0 0 0 0 0 0 0 0 0.07 0"/>
<feBlend mode="normal" in2="BackgroundImageFix" result="effect1_dropShadow_1_662"/>
<feBlend mode="normal" in="SourceGraphic" in2="effect1_dropShadow_1_662" result="shape"/>
</filter>
<filter id="filter1_d_1_662" x="0" y="0" width="275.824" height="59.1554" filterUnits="userSpaceOnUse" color-interpolation-filters="sRGB">
<feFlood flood-opacity="0" result="BackgroundImageFix"/>
<feColorMatrix in="SourceAlpha" type="matrix" values="0 0 0 0 0 0 0 0 0 0 0 0 0 0 0 0 0 0 127 0" result="hardAlpha"/>
<feOffset dy="4"/>
<feGaussianBlur stdDeviation="10"/>
<feComposite in2="hardAlpha" operator="out"/>
<feColorMatrix type="matrix" values="0 0 0 0 0 0 0 0 0 0 0 0 0 0 0 0 0 0 0.07 0"/>
<feBlend mode="normal" in2="BackgroundImageFix" result="effect1_dropShadow_1_662"/>
<feBlend mode="normal" in="SourceGraphic" in2="effect1_dropShadow_1_662" result="shape"/>
</filter>
</defs>
</svg>
