<svg width="272" height="272" viewBox="0 0 272 272" fill="none" xmlns="http://www.w3.org/2000/svg">
<g filter="url(#filter0_d_1_826)">
<g filter="url(#filter1_d_1_826)">
<circle cx="136" cy="132" r="125.5" fill="white" stroke="#005FB8"/>
<path fill-rule="evenodd" clip-rule="evenodd" d="M26.2336 193.866C31.8064 203.754 38.7368 212.928 46.9044 221.095C70.534 244.725 102.583 258 136 258C169.417 258 201.466 244.725 225.095 221.095C233.263 212.928 240.193 203.754 245.766 193.866H26.2336Z" fill="#005FB8"/>
</g>
<path d="M80.2272 215.146L78.8228 214.785L79.5155 207.906H86.6041V209.528H81.0053L80.5878 213.286C80.8409 213.141 81.1603 213.005 81.5462 212.878C81.9385 212.752 82.3876 212.688 82.8938 212.688C83.5327 212.688 84.1052 212.799 84.6113 213.02C85.1175 213.235 85.5476 213.545 85.9019 213.95C86.2625 214.355 86.5377 214.842 86.7275 215.412C86.9173 215.981 87.0122 216.617 87.0122 217.319C87.0122 217.983 86.9205 218.594 86.737 219.151C86.5599 219.707 86.291 220.194 85.9304 220.612C85.5698 221.023 85.1143 221.343 84.5639 221.57C84.0198 221.798 83.3777 221.912 82.6375 221.912C82.0808 221.912 81.5526 221.836 81.0528 221.684C80.5593 221.526 80.1165 221.289 79.7243 220.973C79.3384 220.65 79.022 220.251 78.7753 219.777C78.5349 219.296 78.3831 218.733 78.3198 218.088H79.99C80.0659 218.607 80.2177 219.043 80.4455 219.397C80.6732 219.752 80.9706 220.02 81.3375 220.204C81.7107 220.381 82.1441 220.47 82.6375 220.47C83.0551 220.47 83.4252 220.397 83.7478 220.251C84.0704 220.106 84.3425 219.897 84.5639 219.625C84.7853 219.353 84.953 219.024 85.0668 218.638C85.187 218.252 85.2471 217.819 85.2471 217.338C85.2471 216.902 85.187 216.497 85.0668 216.123C84.9466 215.75 84.7663 215.424 84.5259 215.146C84.2919 214.868 84.004 214.653 83.6624 214.501C83.3208 214.343 82.9285 214.263 82.4857 214.263C81.8974 214.263 81.4514 214.343 81.1477 214.501C80.8504 214.659 80.5435 214.874 80.2272 215.146Z" fill="white"/>
<path d="M97.6119 213.713V215.82C97.6119 216.952 97.5107 217.907 97.3083 218.686C97.1058 219.464 96.8148 220.09 96.4352 220.565C96.0557 221.039 95.597 221.384 95.0593 221.599C94.5278 221.808 93.9269 221.912 93.2563 221.912C92.7248 221.912 92.2346 221.846 91.7854 221.713C91.3362 221.58 90.9313 221.368 90.5707 221.077C90.2165 220.78 89.9128 220.394 89.6597 219.919C89.4067 219.445 89.2137 218.869 89.0809 218.192C88.948 217.515 88.8816 216.724 88.8816 215.82V213.713C88.8816 212.581 88.9828 211.632 89.1853 210.866C89.394 210.101 89.6882 209.487 90.0678 209.025C90.4474 208.557 90.9029 208.222 91.4343 208.019C91.972 207.817 92.573 207.716 93.2373 207.716C93.775 207.716 94.2685 207.782 94.7176 207.915C95.1731 208.042 95.578 208.247 95.9323 208.532C96.2866 208.81 96.5871 209.183 96.8338 209.652C97.0868 210.113 97.2798 210.68 97.4127 211.35C97.5455 212.021 97.6119 212.808 97.6119 213.713ZM95.8469 216.104V213.419C95.8469 212.799 95.8089 212.255 95.733 211.787C95.6634 211.312 95.559 210.907 95.4199 210.572C95.2807 210.237 95.1035 209.965 94.8885 209.756C94.6797 209.547 94.4361 209.395 94.1578 209.3C93.8857 209.199 93.5789 209.149 93.2373 209.149C92.8197 209.149 92.4497 209.228 92.127 209.386C91.8044 209.538 91.5323 209.781 91.3109 210.117C91.0958 210.452 90.9313 210.892 90.8175 211.436C90.7036 211.98 90.6467 212.641 90.6467 213.419V216.104C90.6467 216.724 90.6814 217.272 90.751 217.746C90.827 218.221 90.9377 218.632 91.0832 218.98C91.2287 219.321 91.4058 219.603 91.6146 219.824C91.8233 220.046 92.0637 220.21 92.3358 220.318C92.6141 220.419 92.921 220.47 93.2563 220.47C93.6865 220.47 94.0629 220.387 94.3855 220.223C94.7082 220.058 94.977 219.802 95.1921 219.454C95.4135 219.1 95.578 218.648 95.6856 218.097C95.7931 217.541 95.8469 216.876 95.8469 216.104Z" fill="white"/>
<path d="M106.636 213.428V225.67H104.871V211.455H106.485L106.636 213.428ZM113.554 216.503V216.702C113.554 217.449 113.466 218.142 113.289 218.78C113.111 219.413 112.852 219.964 112.51 220.432C112.175 220.9 111.761 221.264 111.267 221.523C110.774 221.782 110.208 221.912 109.569 221.912C108.917 221.912 108.341 221.804 107.842 221.589C107.342 221.374 106.918 221.061 106.57 220.65C106.222 220.239 105.944 219.745 105.735 219.17C105.532 218.594 105.393 217.945 105.317 217.224V216.161C105.393 215.402 105.536 214.722 105.744 214.121C105.953 213.52 106.228 213.008 106.57 212.584C106.918 212.154 107.339 211.828 107.832 211.606C108.326 211.379 108.895 211.265 109.54 211.265C110.185 211.265 110.758 211.391 111.258 211.644C111.758 211.891 112.178 212.245 112.52 212.707C112.862 213.169 113.118 213.723 113.289 214.368C113.466 215.007 113.554 215.719 113.554 216.503ZM111.789 216.702V216.503C111.789 215.991 111.735 215.51 111.628 215.061C111.52 214.605 111.353 214.207 111.125 213.865C110.904 213.517 110.619 213.245 110.271 213.049C109.923 212.846 109.509 212.745 109.028 212.745C108.585 212.745 108.199 212.821 107.87 212.973C107.547 213.125 107.272 213.33 107.044 213.59C106.817 213.843 106.63 214.134 106.485 214.463C106.345 214.785 106.241 215.121 106.171 215.469V217.926C106.298 218.369 106.475 218.787 106.703 219.179C106.931 219.565 107.234 219.878 107.614 220.118C107.993 220.353 108.471 220.47 109.047 220.47C109.521 220.47 109.929 220.372 110.271 220.175C110.619 219.973 110.904 219.698 111.125 219.35C111.353 219.002 111.52 218.603 111.628 218.154C111.735 217.699 111.789 217.215 111.789 216.702Z" fill="white"/>
<path d="M118.565 220.659L121.421 211.455H123.3L119.182 223.307C119.087 223.56 118.96 223.832 118.802 224.123C118.65 224.42 118.454 224.702 118.214 224.968C117.973 225.233 117.682 225.448 117.341 225.613C117.005 225.784 116.604 225.869 116.135 225.869C115.996 225.869 115.819 225.85 115.604 225.812C115.389 225.774 115.237 225.743 115.148 225.717L115.139 224.294C115.19 224.3 115.269 224.307 115.376 224.313C115.49 224.325 115.569 224.332 115.613 224.332C116.012 224.332 116.35 224.278 116.629 224.171C116.907 224.069 117.141 223.895 117.331 223.649C117.527 223.408 117.695 223.076 117.834 222.652L118.565 220.659ZM116.468 211.455L119.134 219.426L119.59 221.276L118.327 221.921L114.551 211.455H116.468Z" fill="white"/>
<path d="M131.47 206.985H132.913C132.913 207.605 132.818 208.098 132.628 208.465C132.438 208.826 132.179 209.104 131.85 209.3C131.527 209.497 131.16 209.645 130.749 209.746C130.344 209.848 129.924 209.946 129.487 210.041C128.943 210.155 128.437 210.335 127.969 210.582C127.507 210.822 127.108 211.164 126.773 211.606C126.444 212.049 126.201 212.625 126.042 213.334C125.891 214.042 125.849 214.918 125.919 215.962V216.835H124.477V215.962C124.477 214.792 124.587 213.77 124.809 212.897C125.037 212.024 125.356 211.287 125.767 210.686C126.178 210.085 126.666 209.607 127.229 209.253C127.798 208.899 128.424 208.655 129.108 208.522C129.601 208.427 130.025 208.326 130.379 208.219C130.733 208.105 131.002 207.953 131.186 207.763C131.375 207.573 131.47 207.314 131.47 206.985ZM129.392 212.043C130.063 212.043 130.661 212.16 131.186 212.394C131.711 212.628 132.157 212.954 132.524 213.371C132.891 213.789 133.169 214.282 133.359 214.852C133.555 215.415 133.653 216.029 133.653 216.693V216.902C133.653 217.616 133.549 218.281 133.34 218.894C133.137 219.502 132.837 220.033 132.438 220.489C132.046 220.938 131.565 221.289 130.996 221.542C130.433 221.795 129.791 221.921 129.07 221.921C128.348 221.921 127.703 221.795 127.134 221.542C126.571 221.289 126.09 220.938 125.691 220.489C125.293 220.033 124.989 219.502 124.78 218.894C124.578 218.281 124.477 217.616 124.477 216.902V216.693C124.477 216.535 124.505 216.38 124.562 216.228C124.619 216.076 124.689 215.921 124.771 215.763C124.859 215.605 124.938 215.437 125.008 215.26C125.242 214.691 125.562 214.162 125.966 213.675C126.378 213.188 126.868 212.796 127.437 212.498C128.013 212.195 128.665 212.043 129.392 212.043ZM129.051 213.476C128.405 213.476 127.874 213.625 127.456 213.922C127.045 214.219 126.738 214.615 126.536 215.108C126.333 215.595 126.232 216.123 126.232 216.693V216.902C126.232 217.382 126.289 217.838 126.403 218.268C126.517 218.698 126.688 219.081 126.915 219.416C127.15 219.745 127.444 220.005 127.798 220.194C128.159 220.384 128.582 220.479 129.07 220.479C129.557 220.479 129.977 220.384 130.332 220.194C130.686 220.005 130.977 219.745 131.205 219.416C131.432 219.081 131.603 218.698 131.717 218.268C131.831 217.838 131.888 217.382 131.888 216.902V216.693C131.888 216.263 131.831 215.855 131.717 215.469C131.603 215.083 131.429 214.741 131.195 214.444C130.967 214.146 130.673 213.912 130.313 213.742C129.958 213.564 129.538 213.476 129.051 213.476Z" fill="white"/>
<path d="M135.674 220.792C135.674 220.495 135.766 220.245 135.949 220.043C136.139 219.834 136.411 219.729 136.766 219.729C137.12 219.729 137.389 219.834 137.572 220.043C137.762 220.245 137.857 220.495 137.857 220.792C137.857 221.083 137.762 221.33 137.572 221.532C137.389 221.735 137.12 221.836 136.766 221.836C136.411 221.836 136.139 221.735 135.949 221.532C135.766 221.33 135.674 221.083 135.674 220.792Z" fill="white"/>
<path d="M146.881 207.906L141.121 222.908H139.612L145.382 207.906H146.881Z" fill="white"/>
<path d="M150.706 211.455V221.722H148.95V211.455H150.706ZM157.443 211.455L152.575 217.338H150.117L149.852 215.801H151.863L155.308 211.455H157.443ZM155.555 221.722L151.778 217.072L152.907 215.801L157.785 221.722H155.555Z" fill="white"/>
<path d="M164.503 215.26H161.002L160.983 213.789H164.162C164.687 213.789 165.145 213.7 165.538 213.523C165.93 213.346 166.233 213.093 166.449 212.764C166.67 212.429 166.781 212.03 166.781 211.568C166.781 211.062 166.683 210.651 166.487 210.335C166.297 210.012 166.003 209.778 165.604 209.633C165.212 209.481 164.712 209.405 164.105 209.405H161.41V221.722H159.578V207.906H164.105C164.813 207.906 165.446 207.978 166.003 208.124C166.559 208.263 167.031 208.484 167.417 208.788C167.809 209.085 168.106 209.465 168.309 209.927C168.511 210.389 168.612 210.942 168.612 211.587C168.612 212.157 168.467 212.672 168.176 213.134C167.885 213.59 167.48 213.963 166.961 214.254C166.449 214.545 165.848 214.732 165.158 214.814L164.503 215.26ZM164.418 221.722H160.28L161.315 220.232H164.418C165 220.232 165.493 220.131 165.898 219.929C166.309 219.726 166.623 219.442 166.838 219.075C167.053 218.701 167.16 218.262 167.16 217.756C167.16 217.243 167.069 216.8 166.885 216.427C166.702 216.054 166.414 215.766 166.022 215.564C165.629 215.361 165.123 215.26 164.503 215.26H161.894L161.913 213.789H165.481L165.87 214.32C166.534 214.377 167.097 214.567 167.559 214.89C168.021 215.206 168.372 215.611 168.612 216.104C168.859 216.598 168.982 217.142 168.982 217.737C168.982 218.597 168.792 219.325 168.413 219.919C168.04 220.508 167.511 220.957 166.828 221.267C166.145 221.57 165.341 221.722 164.418 221.722Z" fill="white"/>
<path d="M175.606 211.455V221.722H173.841V211.455H175.606ZM179.051 211.455V212.878H170.463V211.455H179.051Z" fill="white"/>
<path d="M180.664 215.004L182.571 212.385L179.705 211.531L180.151 210.107L183.017 211.16L182.932 207.896H184.374L184.279 211.217L187.107 210.164L187.544 211.616L184.63 212.479L186.5 215.051L185.323 215.934L183.568 213.201L181.85 215.867L180.664 215.004Z" fill="white"/>
<path d="M196.891 211.455V221.722H195.135V211.455H196.891ZM196.293 216.171V217.613C195.939 217.746 195.578 217.866 195.211 217.974C194.851 218.075 194.468 218.157 194.063 218.221C193.664 218.278 193.231 218.306 192.763 218.306C191.953 218.306 191.251 218.167 190.656 217.888C190.062 217.604 189.603 217.177 189.28 216.607C188.958 216.032 188.796 215.307 188.796 214.434V211.436H190.552V214.434C190.552 215.004 190.637 215.465 190.808 215.82C190.979 216.174 191.229 216.437 191.558 216.607C191.887 216.772 192.288 216.854 192.763 216.854C193.218 216.854 193.645 216.826 194.044 216.769C194.449 216.705 194.835 216.623 195.202 216.522C195.575 216.421 195.939 216.304 196.293 216.171Z" fill="white"/>
<path d="M126.327 230.579V244.396H124.505V232.078H117.692V244.396H115.86V230.579H126.327Z" fill="white"/>
<path d="M136.244 234.128V235.58H131.281V234.128H136.244ZM137.79 234.128V244.396H136.035V234.128H137.79ZM130.854 234.128H132.619L132.353 239.082C132.309 239.847 132.236 240.524 132.135 241.112C132.04 241.694 131.907 242.194 131.736 242.612C131.572 243.029 131.363 243.371 131.11 243.637C130.863 243.896 130.566 244.089 130.218 244.215C129.87 244.336 129.468 244.396 129.013 244.396H128.462V242.849L128.842 242.82C129.114 242.802 129.345 242.738 129.535 242.631C129.731 242.523 129.895 242.365 130.028 242.156C130.161 241.941 130.268 241.666 130.351 241.331C130.439 240.995 130.506 240.597 130.55 240.135C130.601 239.673 130.638 239.135 130.664 238.522L130.854 234.128Z" fill="white"/>
<path d="M146.673 242.64V237.355C146.673 236.95 146.59 236.599 146.426 236.301C146.268 235.998 146.027 235.763 145.705 235.599C145.382 235.435 144.983 235.352 144.509 235.352C144.066 235.352 143.677 235.428 143.342 235.58C143.013 235.732 142.753 235.931 142.564 236.178C142.38 236.425 142.288 236.69 142.288 236.975H140.533C140.533 236.608 140.628 236.244 140.818 235.884C141.007 235.523 141.279 235.197 141.634 234.906C141.994 234.609 142.424 234.375 142.924 234.204C143.43 234.027 143.993 233.938 144.613 233.938C145.36 233.938 146.018 234.065 146.587 234.318C147.163 234.571 147.612 234.954 147.935 235.466C148.264 235.972 148.428 236.608 148.428 237.374V242.156C148.428 242.498 148.457 242.862 148.513 243.248C148.577 243.633 148.668 243.966 148.789 244.244V244.396H146.957C146.869 244.193 146.799 243.924 146.748 243.589C146.698 243.248 146.673 242.931 146.673 242.64ZM146.976 238.171L146.995 239.404H145.221C144.721 239.404 144.275 239.445 143.883 239.528C143.49 239.604 143.161 239.721 142.896 239.879C142.63 240.037 142.428 240.236 142.288 240.477C142.149 240.711 142.08 240.986 142.08 241.302C142.08 241.625 142.152 241.919 142.298 242.185C142.443 242.45 142.662 242.662 142.953 242.82C143.25 242.972 143.614 243.048 144.044 243.048C144.582 243.048 145.056 242.934 145.467 242.707C145.879 242.479 146.204 242.201 146.445 241.872C146.692 241.543 146.824 241.223 146.843 240.913L147.593 241.758C147.549 242.023 147.429 242.318 147.232 242.64C147.036 242.963 146.774 243.273 146.445 243.57C146.122 243.861 145.736 244.105 145.287 244.301C144.844 244.491 144.344 244.586 143.788 244.586C143.092 244.586 142.481 244.45 141.956 244.177C141.437 243.905 141.033 243.542 140.742 243.086C140.457 242.624 140.315 242.109 140.315 241.539C140.315 240.989 140.422 240.505 140.637 240.088C140.852 239.664 141.162 239.313 141.567 239.034C141.972 238.75 142.459 238.534 143.029 238.389C143.598 238.243 144.234 238.171 144.936 238.171H146.976Z" fill="white"/>
<path d="M158.155 238.579V240.002H152.727V238.579H158.155ZM153.097 234.128V244.396H151.341V234.128H153.097ZM159.578 234.128V244.396H157.813V234.128H159.578Z" fill="white"/>
<path d="M110.631 109.683V112.91H78.0193V110.727L99.3073 78.4946H102.471L97.9788 86.3076L82.6375 109.683H110.631ZM103.451 78.4946V124.55H99.6869V78.4946H103.451Z" fill="black"/>
<path d="M120.406 118.572V123C120.406 124.94 120.005 126.807 119.204 128.599C118.402 130.413 117.316 131.941 115.946 133.186L113.731 131.541C114.385 130.655 114.933 129.769 115.376 128.884C115.819 128.019 116.146 127.112 116.357 126.163C116.589 125.214 116.705 124.192 116.705 123.095V118.572H120.406Z" fill="black"/>
<path d="M156.972 78.4946V80.6772L137.297 124.55H133.375L152.923 81.7527H126.7V78.4946H156.972Z" fill="black"/>
<path d="M169.751 121.577H170.573C173.926 121.577 176.731 121.092 178.987 120.122C181.244 119.131 183.047 117.771 184.396 116.041C185.767 114.291 186.748 112.246 187.338 109.905C187.929 107.564 188.224 105.023 188.224 102.282V95.8604C188.224 93.4353 187.96 91.3054 187.433 89.4708C186.906 87.6362 186.157 86.1073 185.187 84.8842C184.217 83.64 183.068 82.7016 181.739 82.069C180.432 81.4364 178.977 81.1201 177.374 81.1201C175.793 81.1201 174.359 81.4575 173.072 82.1323C171.807 82.8071 170.731 83.7455 169.846 84.9475C168.981 86.1284 168.306 87.4885 167.821 89.028C167.357 90.5463 167.125 92.1595 167.125 93.8676C167.125 95.4281 167.336 96.9464 167.758 98.4225C168.201 99.8776 168.844 101.196 169.688 102.376C170.531 103.536 171.564 104.464 172.788 105.16C174.032 105.835 175.466 106.172 177.089 106.172C178.924 106.172 180.548 105.824 181.961 105.128C183.395 104.433 184.607 103.536 185.598 102.44C186.611 101.322 187.38 100.12 187.907 98.8337C188.456 97.5263 188.751 96.261 188.793 95.038L190.691 95.0063C190.691 96.9253 190.333 98.7599 189.616 100.51C188.92 102.239 187.929 103.779 186.642 105.128C185.377 106.457 183.89 107.511 182.182 108.292C180.474 109.072 178.629 109.462 176.647 109.462C174.496 109.462 172.587 109.04 170.921 108.197C169.276 107.332 167.895 106.172 166.778 104.717C165.681 103.241 164.848 101.586 164.279 99.7511C163.709 97.9164 163.425 96.008 163.425 94.0257C163.425 91.8115 163.73 89.7344 164.342 87.7943C164.975 85.8332 165.892 84.1145 167.094 82.6384C168.296 81.1411 169.751 79.9708 171.459 79.1273C173.188 78.2838 175.139 77.862 177.311 77.862C179.778 77.862 181.929 78.3154 183.764 79.2222C185.598 80.1078 187.117 81.3731 188.319 83.0179C189.542 84.6628 190.448 86.6029 191.039 88.8382C191.65 91.0735 191.956 93.5407 191.956 96.24V99.8776C191.956 102.598 191.745 105.202 191.324 107.691C190.902 110.179 190.195 112.478 189.204 114.586C188.234 116.674 186.927 118.488 185.282 120.027C183.637 121.566 181.602 122.768 179.177 123.633C176.752 124.476 173.884 124.898 170.573 124.898H169.719L169.751 121.577Z" fill="black"/>
<path d="M84.2871 141.435V155.716H82.2279V139.132H84.1099L84.2871 141.435ZM92.3579 145.022V145.254C92.3579 146.125 92.2546 146.933 92.0479 147.679C91.8412 148.417 91.5386 149.059 91.1401 149.605C90.7489 150.151 90.2655 150.576 89.6898 150.878C89.1141 151.181 88.4535 151.332 87.708 151.332C86.9478 151.332 86.2762 151.207 85.6931 150.956C85.11 150.705 84.6155 150.339 84.2096 149.86C83.8036 149.38 83.4789 148.804 83.2353 148.133C82.9992 147.461 82.8368 146.704 82.7482 145.863V144.623C82.8368 143.737 83.0028 142.944 83.2464 142.243C83.49 141.542 83.811 140.944 84.2096 140.449C84.6155 139.947 85.1063 139.567 85.682 139.309C86.2577 139.043 86.922 138.91 87.6748 138.91C88.4277 138.91 89.0956 139.058 89.6787 139.353C90.2618 139.641 90.7526 140.054 91.1511 140.593C91.5497 141.132 91.8486 141.778 92.0479 142.531C92.2546 143.276 92.3579 144.106 92.3579 145.022ZM90.2987 145.254V145.022C90.2987 144.424 90.2359 143.863 90.1105 143.339C89.985 142.807 89.7894 142.342 89.5237 141.944C89.2654 141.538 88.9332 141.22 88.5273 140.992C88.1214 140.756 87.6379 140.637 87.077 140.637C86.5603 140.637 86.1101 140.726 85.7263 140.903C85.3499 141.08 85.0288 141.32 84.7631 141.623C84.4974 141.918 84.2797 142.257 84.1099 142.641C83.9476 143.018 83.8258 143.409 83.7446 143.815V146.682C83.8922 147.199 84.0989 147.686 84.3646 148.144C84.6303 148.594 84.9846 148.959 85.4274 149.24C85.8702 149.513 86.4275 149.649 87.0991 149.649C87.6527 149.649 88.1287 149.535 88.5273 149.306C88.9332 149.07 89.2654 148.749 89.5237 148.343C89.7894 147.937 89.985 147.472 90.1105 146.948C90.2359 146.417 90.2987 145.852 90.2987 145.254Z" fill="black"/>
<path d="M98.2034 149.871L101.536 139.132H103.728L98.923 152.96C98.8123 153.255 98.6647 153.572 98.4802 153.912C98.303 154.259 98.0742 154.587 97.7938 154.897C97.5133 155.207 97.1738 155.458 96.7752 155.65C96.3841 155.849 95.9154 155.949 95.3692 155.949C95.2068 155.949 95.0002 155.927 94.7492 155.882C94.4983 155.838 94.3212 155.801 94.2178 155.772L94.2068 154.111C94.2658 154.118 94.3581 154.126 94.4835 154.133C94.6164 154.148 94.7086 154.155 94.7603 154.155C95.2253 154.155 95.6202 154.092 95.9449 153.967C96.2697 153.849 96.5427 153.646 96.7642 153.358C96.993 153.078 97.1886 152.69 97.3509 152.196L98.2034 149.871ZM95.7567 139.132L98.8677 148.431L99.3991 150.59L97.9266 151.343L93.5203 139.132H95.7567Z" fill="black"/>
<path d="M113.26 133.917H114.943C114.943 134.641 114.832 135.216 114.611 135.644C114.389 136.065 114.087 136.39 113.703 136.619C113.326 136.847 112.898 137.021 112.419 137.139C111.946 137.257 111.455 137.371 110.946 137.482C110.311 137.615 109.721 137.825 109.175 138.113C108.636 138.394 108.171 138.792 107.78 139.309C107.396 139.826 107.112 140.497 106.927 141.324C106.75 142.15 106.702 143.173 106.783 144.391V145.409H105.101V144.391C105.101 143.025 105.23 141.833 105.488 140.815C105.754 139.796 106.127 138.936 106.606 138.235C107.086 137.534 107.654 136.977 108.311 136.563C108.976 136.15 109.706 135.866 110.503 135.711C111.079 135.6 111.574 135.482 111.987 135.357C112.4 135.224 112.714 135.047 112.928 134.825C113.149 134.604 113.26 134.301 113.26 133.917ZM110.835 139.818C111.618 139.818 112.315 139.955 112.928 140.228C113.541 140.501 114.061 140.881 114.489 141.368C114.917 141.855 115.242 142.431 115.463 143.095C115.692 143.752 115.806 144.468 115.806 145.243V145.487C115.806 146.321 115.685 147.096 115.441 147.811C115.205 148.52 114.854 149.14 114.389 149.671C113.932 150.195 113.371 150.605 112.706 150.9C112.05 151.196 111.3 151.343 110.459 151.343C109.618 151.343 108.865 151.196 108.201 150.9C107.544 150.605 106.983 150.195 106.518 149.671C106.053 149.14 105.699 148.52 105.455 147.811C105.219 147.096 105.101 146.321 105.101 145.487V145.243C105.101 145.058 105.134 144.878 105.2 144.7C105.267 144.523 105.348 144.343 105.444 144.158C105.547 143.973 105.639 143.778 105.721 143.571C105.994 142.907 106.366 142.291 106.839 141.722C107.319 141.154 107.891 140.696 108.555 140.35C109.226 139.995 109.987 139.818 110.835 139.818ZM110.437 141.49C109.684 141.49 109.064 141.663 108.577 142.01C108.097 142.357 107.739 142.818 107.503 143.394C107.267 143.962 107.149 144.579 107.149 145.243V145.487C107.149 146.047 107.215 146.579 107.348 147.081C107.481 147.583 107.68 148.029 107.946 148.42C108.219 148.804 108.562 149.107 108.976 149.328C109.396 149.55 109.891 149.66 110.459 149.66C111.027 149.66 111.518 149.55 111.932 149.328C112.345 149.107 112.684 148.804 112.95 148.42C113.216 148.029 113.415 147.583 113.548 147.081C113.681 146.579 113.747 146.047 113.747 145.487V145.243C113.747 144.741 113.681 144.265 113.548 143.815C113.415 143.365 113.212 142.966 112.939 142.619C112.673 142.272 112.33 141.999 111.909 141.8C111.496 141.593 111.005 141.49 110.437 141.49Z" fill="black"/>
<path d="M118.165 150.026C118.165 149.679 118.272 149.387 118.486 149.151C118.707 148.907 119.024 148.786 119.438 148.786C119.851 148.786 120.165 148.907 120.379 149.151C120.6 149.387 120.711 149.679 120.711 150.026C120.711 150.365 120.6 150.653 120.379 150.889C120.165 151.125 119.851 151.243 119.438 151.243C119.024 151.243 118.707 151.125 118.486 150.889C118.272 150.653 118.165 150.365 118.165 150.026Z" fill="black"/>
<path d="M131.239 134.991L124.519 152.495H122.759L129.49 134.991H131.239Z" fill="black"/>
<path d="M135.701 139.132V151.111H133.653V139.132H135.701ZM143.562 139.132L137.882 145.996H135.015L134.705 144.202H137.052L141.071 139.132H143.562ZM141.358 151.111L136.952 145.686L138.27 144.202L143.96 151.111H141.358Z" fill="black"/>
<path d="M151.798 143.571H147.713L147.691 141.855H151.4C152.012 141.855 152.548 141.752 153.005 141.545C153.463 141.339 153.817 141.043 154.068 140.66C154.326 140.268 154.455 139.803 154.455 139.265C154.455 138.674 154.341 138.194 154.112 137.825C153.891 137.449 153.548 137.176 153.083 137.006C152.625 136.829 152.042 136.74 151.333 136.74H148.189V151.111H146.052V134.991H151.333C152.16 134.991 152.898 135.076 153.548 135.246C154.197 135.408 154.747 135.667 155.197 136.021C155.655 136.368 156.002 136.811 156.238 137.349C156.474 137.888 156.592 138.534 156.592 139.287C156.592 139.951 156.422 140.553 156.083 141.091C155.743 141.623 155.271 142.058 154.666 142.398C154.068 142.737 153.367 142.955 152.562 143.051L151.798 143.571ZM151.699 151.111H146.872L148.079 149.372H151.699C152.378 149.372 152.953 149.254 153.426 149.018C153.906 148.782 154.271 148.45 154.522 148.022C154.773 147.586 154.898 147.073 154.898 146.483C154.898 145.885 154.791 145.368 154.577 144.933C154.363 144.498 154.027 144.162 153.57 143.926C153.112 143.689 152.522 143.571 151.798 143.571H148.754L148.776 141.855H152.939L153.393 142.475C154.168 142.542 154.824 142.763 155.363 143.139C155.902 143.509 156.312 143.981 156.592 144.557C156.88 145.132 157.024 145.767 157.024 146.461C157.024 147.465 156.802 148.313 156.36 149.007C155.924 149.694 155.308 150.218 154.511 150.579C153.714 150.934 152.776 151.111 151.699 151.111Z" fill="black"/>
<path d="M164.752 139.132V151.111H162.692V139.132H164.752ZM168.77 139.132V140.792H158.751V139.132H168.77Z" fill="black"/>
<path d="M170.652 143.272L172.878 140.217L169.534 139.22L170.055 137.56L173.398 138.789L173.298 134.98H174.981L174.87 138.855L178.17 137.626L178.679 139.32L175.28 140.327L177.461 143.328L176.088 144.357L174.04 141.169L172.036 144.28L170.652 143.272Z" fill="black"/>
<path d="M189.584 139.132V151.111H187.536V139.132H189.584ZM188.886 144.634V146.317C188.473 146.472 188.052 146.612 187.624 146.738C187.204 146.856 186.757 146.952 186.285 147.025C185.82 147.092 185.314 147.125 184.768 147.125C183.823 147.125 183.004 146.963 182.31 146.638C181.616 146.306 181.081 145.808 180.705 145.143C180.328 144.472 180.14 143.627 180.14 142.608V139.11H182.188V142.608C182.188 143.272 182.288 143.811 182.487 144.224C182.687 144.638 182.978 144.944 183.362 145.143C183.746 145.335 184.214 145.431 184.768 145.431C185.299 145.431 185.798 145.398 186.263 145.332C186.735 145.258 187.185 145.162 187.613 145.044C188.049 144.926 188.473 144.789 188.886 144.634Z" fill="black"/>
<path d="M122.573 51.4969L122.374 57.1764H120.458V53.2904H118.875V51.4969H122.573ZM108.657 53.2904V37.171H110.805V51.5523H118.742V37.171H120.879V53.2904H108.657Z" fill="#005FB8"/>
<path d="M129.836 53.5119C129.002 53.5119 128.245 53.3716 127.566 53.0912C126.894 52.8033 126.315 52.4011 125.828 51.8844C125.348 51.3678 124.979 50.7552 124.721 50.0466C124.463 49.3381 124.333 48.5631 124.333 47.7217V47.2567C124.333 46.2825 124.477 45.4152 124.765 44.655C125.053 43.8874 125.444 43.2379 125.939 42.7065C126.433 42.1751 126.994 41.7729 127.621 41.4998C128.249 41.2267 128.898 41.0901 129.57 41.0901C130.426 41.0901 131.164 41.2378 131.784 41.533C132.412 41.8282 132.924 42.2415 133.323 42.7729C133.722 43.297 134.017 43.917 134.209 44.6329C134.401 45.3414 134.497 46.1164 134.497 46.9578V47.8767H125.551V46.205H132.448V46.05C132.419 45.5186 132.308 45.0019 132.116 44.5C131.932 43.9981 131.637 43.5848 131.231 43.2601C130.825 42.9353 130.271 42.7729 129.57 42.7729C129.105 42.7729 128.677 42.8726 128.286 43.0719C127.895 43.2638 127.559 43.5516 127.278 43.9354C126.998 44.3192 126.78 44.7879 126.625 45.3414C126.47 45.895 126.393 46.5334 126.393 47.2567V47.7217C126.393 48.29 126.47 48.8251 126.625 49.327C126.787 49.8215 127.02 50.257 127.323 50.6334C127.633 51.0098 128.005 51.305 128.441 51.5191C128.884 51.7331 129.385 51.8401 129.946 51.8401C130.67 51.8401 131.282 51.6925 131.784 51.3973C132.286 51.1021 132.725 50.7072 133.102 50.2127L134.342 51.198C134.083 51.5892 133.755 51.9619 133.356 52.3162C132.958 52.6705 132.467 52.9583 131.884 53.1797C131.308 53.4012 130.625 53.5119 129.836 53.5119Z" fill="#005FB8"/>
<path d="M145.014 46.5039V48.1645H138.681V46.5039H145.014ZM139.113 41.3116V53.2904H137.065V41.3116H139.113ZM146.675 41.3116V53.2904H144.616V41.3116H146.675Z" fill="#005FB8"/>
<path d="M157.037 51.2423V45.0757C157.037 44.6034 156.941 44.1937 156.749 43.8468C156.565 43.4926 156.284 43.2195 155.908 43.0276C155.532 42.8357 155.067 42.7397 154.513 42.7397C153.996 42.7397 153.542 42.8283 153.151 43.0054C152.768 43.1826 152.465 43.4151 152.243 43.7029C152.029 43.9908 151.922 44.3007 151.922 44.6329H149.874C149.874 44.2048 149.985 43.7804 150.206 43.3597C150.428 42.939 150.745 42.5589 151.159 42.2194C151.579 41.8725 152.081 41.5994 152.664 41.4001C153.255 41.1935 153.912 41.0901 154.635 41.0901C155.506 41.0901 156.273 41.2378 156.938 41.533C157.609 41.8282 158.133 42.2747 158.51 42.8726C158.893 43.463 159.085 44.2048 159.085 45.0979V50.6777C159.085 51.0762 159.119 51.5006 159.185 51.9508C159.259 52.4011 159.366 52.7886 159.506 53.1133V53.2904H157.369C157.266 53.0543 157.185 52.7406 157.126 52.3494C157.067 51.9508 157.037 51.5818 157.037 51.2423ZM157.392 46.0278L157.414 47.4671H155.343C154.76 47.4671 154.24 47.515 153.782 47.611C153.325 47.6996 152.941 47.8361 152.631 48.0206C152.321 48.2051 152.085 48.4376 151.922 48.7181C151.76 48.9912 151.679 49.3122 151.679 49.6813C151.679 50.0577 151.764 50.4009 151.933 50.7109C152.103 51.0209 152.358 51.2681 152.697 51.4527C153.044 51.6298 153.469 51.7184 153.971 51.7184C154.598 51.7184 155.151 51.5855 155.631 51.3198C156.111 51.0541 156.491 50.7293 156.772 50.3455C157.059 49.9618 157.214 49.589 157.237 49.2274L158.111 50.2127C158.059 50.5227 157.919 50.8659 157.69 51.2423C157.462 51.6187 157.155 51.9804 156.772 52.3273C156.395 52.6668 155.945 52.9509 155.421 53.1797C154.904 53.4012 154.321 53.5119 153.672 53.5119C152.86 53.5119 152.148 53.3532 151.535 53.0358C150.93 52.7184 150.457 52.2941 150.118 51.7626C149.786 51.2239 149.62 50.6223 149.62 49.9581C149.62 49.3159 149.745 48.7513 149.996 48.2642C150.247 47.7697 150.609 47.3601 151.081 47.0353C151.553 46.7032 152.122 46.4522 152.786 46.2825C153.45 46.1127 154.192 46.0278 155.011 46.0278H157.392Z" fill="#005FB8"/>
</g>
<defs>
<filter id="filter0_d_1_826" x="6" y="6" width="260" height="260" filterUnits="userSpaceOnUse" color-interpolation-filters="sRGB">
<feFlood flood-opacity="0" result="BackgroundImageFix"/>
<feColorMatrix in="SourceAlpha" type="matrix" values="0 0 0 0 0 0 0 0 0 0 0 0 0 0 0 0 0 0 127 0" result="hardAlpha"/>
<feOffset dy="4"/>
<feGaussianBlur stdDeviation="2"/>
<feComposite in2="hardAlpha" operator="out"/>
<feColorMatrix type="matrix" values="0 0 0 0 0 0 0 0 0 0 0 0 0 0 0 0 0 0 0.1 0"/>
<feBlend mode="normal" in2="BackgroundImageFix" result="effect1_dropShadow_1_826"/>
<feBlend mode="normal" in="SourceGraphic" in2="effect1_dropShadow_1_826" result="shape"/>
</filter>
<filter id="filter1_d_1_826" x="0" y="0" width="272" height="272" filterUnits="userSpaceOnUse" color-interpolation-filters="sRGB">
<feFlood flood-opacity="0" result="BackgroundImageFix"/>
<feColorMatrix in="SourceAlpha" type="matrix" values="0 0 0 0 0 0 0 0 0 0 0 0 0 0 0 0 0 0 127 0" result="hardAlpha"/>
<feOffset dy="4"/>
<feGaussianBlur stdDeviation="5"/>
<feComposite in2="hardAlpha" operator="out"/>
<feColorMatrix type="matrix" values="0 0 0 0 0 0 0 0 0 0 0 0 0 0 0 0 0 0 0.05 0"/>
<feBlend mode="normal" in2="BackgroundImageFix" result="effect1_dropShadow_1_826"/>
<feBlend mode="normal" in="SourceGraphic" in2="effect1_dropShadow_1_826" result="shape"/>
</filter>
</defs>
</svg>
