<svg width="276" height="167" viewBox="0 0 276 167" fill="none" xmlns="http://www.w3.org/2000/svg">
<g filter="url(#filter0_d_1_646)">
<rect x="20" y="16" width="236" height="126.094" rx="10" fill="white"/>
<rect x="20.5" y="16.5" width="235" height="125.094" rx="9.5" stroke="#005FB8"/>
</g>
<g filter="url(#filter1_d_1_646)">
<path d="M20 26C20 20.4772 24.4772 16 30 16H246C251.523 16 256 20.4772 256 26V35.1697H20V26Z" fill="#005FB8"/>
</g>
<path d="M35.2059 22.7227V28.7798H34.1659V23.5547H31.4743V28.7798H30.4343V22.7227H35.2059Z" fill="white"/>
<path d="M36.1711 26.5791V26.4834C36.1711 26.1589 36.2182 25.858 36.3125 25.5807C36.4068 25.3006 36.5427 25.0579 36.7202 24.8527C36.9005 24.6447 37.1196 24.4838 37.3775 24.3701C37.6382 24.2536 37.9322 24.1954 38.2594 24.1954C38.5895 24.1954 38.8835 24.2536 39.1414 24.3701C39.4021 24.4838 39.6226 24.6447 39.8028 24.8527C39.9831 25.0579 40.1204 25.3006 40.2147 25.5807C40.309 25.858 40.3561 26.1589 40.3561 26.4834V26.5791C40.3561 26.9036 40.309 27.2045 40.2147 27.4818C40.1204 27.7592 39.9831 28.0019 39.8028 28.2099C39.6226 28.4151 39.4035 28.5759 39.1455 28.6924C38.8876 28.8061 38.595 28.863 38.2678 28.863C37.9377 28.863 37.6424 28.8061 37.3817 28.6924C37.1237 28.5759 36.9046 28.4151 36.7244 28.2099C36.5441 28.0019 36.4068 27.7592 36.3125 27.4818C36.2182 27.2045 36.1711 26.9036 36.1711 26.5791ZM37.1737 26.4834V26.5791C37.1737 26.7816 37.1945 26.9729 37.2361 27.1532C37.2777 27.3335 37.3428 27.4916 37.4316 27.6274C37.5203 27.7633 37.634 27.8701 37.7727 27.9478C37.9114 28.0254 38.0764 28.0643 38.2678 28.0643C38.4536 28.0643 38.6144 28.0254 38.7503 27.9478C38.889 27.8701 39.0027 27.7633 39.0915 27.6274C39.1802 27.4916 39.2454 27.3335 39.287 27.1532C39.3314 26.9729 39.3535 26.7816 39.3535 26.5791V26.4834C39.3535 26.2837 39.3314 26.0951 39.287 25.9177C39.2454 25.7374 39.1788 25.5779 39.0873 25.4392C38.9986 25.3006 38.8848 25.1924 38.7462 25.1148C38.6103 25.0343 38.448 24.9941 38.2594 24.9941C38.0709 24.9941 37.9072 25.0343 37.7686 25.1148C37.6327 25.1924 37.5203 25.3006 37.4316 25.4392C37.3428 25.5779 37.2777 25.7374 37.2361 25.9177C37.1945 26.0951 37.1737 26.2837 37.1737 26.4834Z" fill="white"/>
<path d="M43.185 24.2786V28.7798H42.1782V24.2786H43.185ZM44.6618 24.2786V25.069H40.7264V24.2786H44.6618Z" fill="white"/>
<path d="M46.3383 25.1439V30.5104H45.3358V24.2786H46.2593L46.3383 25.1439ZM49.2712 26.4876V26.5749C49.2712 26.9022 49.2324 27.2059 49.1547 27.486C49.0798 27.7633 48.9675 28.006 48.8177 28.214C48.6708 28.4193 48.4891 28.5787 48.2728 28.6924C48.0564 28.8061 47.8068 28.863 47.524 28.863C47.2438 28.863 46.9984 28.8117 46.7876 28.7091C46.5796 28.6037 46.4035 28.4553 46.2593 28.2639C46.1151 28.0726 45.9986 27.8479 45.9098 27.59C45.8239 27.3293 45.7629 27.0436 45.7268 26.733V26.3961C45.7629 26.066 45.8239 25.7665 45.9098 25.4975C45.9986 25.2285 46.1151 24.9969 46.2593 24.8027C46.4035 24.6086 46.5796 24.4588 46.7876 24.3535C46.9956 24.2481 47.2383 24.1954 47.5156 24.1954C47.7985 24.1954 48.0495 24.2508 48.2686 24.3618C48.4877 24.4699 48.6721 24.6253 48.8219 24.8277C48.9717 25.0274 49.084 25.2687 49.1589 25.5516C49.2338 25.8317 49.2712 26.1437 49.2712 26.4876ZM48.2686 26.5749V26.4876C48.2686 26.2796 48.2492 26.0868 48.2104 25.9093C48.1715 25.7291 48.1105 25.571 48.0273 25.4351C47.9441 25.2992 47.8374 25.1938 47.707 25.1189C47.5794 25.0413 47.4255 25.0024 47.2452 25.0024C47.0677 25.0024 46.9152 25.0329 46.7876 25.094C46.66 25.1522 46.5533 25.234 46.4673 25.3394C46.3813 25.4448 46.3148 25.5682 46.2676 25.7096C46.2205 25.8483 46.1872 25.9995 46.1678 26.1631V26.9702C46.2011 27.1698 46.2579 27.3529 46.3383 27.5193C46.4188 27.6857 46.5325 27.8188 46.6795 27.9187C46.8292 28.0157 47.0206 28.0643 47.2536 28.0643C47.4338 28.0643 47.5877 28.0254 47.7153 27.9478C47.8429 27.8701 47.9469 27.7633 48.0273 27.6274C48.1105 27.4888 48.1715 27.3293 48.2104 27.149C48.2492 26.9688 48.2686 26.7774 48.2686 26.5749Z" fill="white"/>
<path d="M52.1084 28.863C51.7756 28.863 51.4747 28.8089 51.2056 28.7007C50.9394 28.5898 50.712 28.4359 50.5234 28.239C50.3376 28.0421 50.1947 27.8105 50.0949 27.5442C49.9951 27.278 49.9451 26.991 49.9451 26.6831V26.5167C49.9451 26.1645 49.9964 25.8455 50.0991 25.5599C50.2017 25.2742 50.3445 25.0302 50.5275 24.8277C50.7106 24.6225 50.9269 24.4658 51.1765 24.3576C51.4261 24.2495 51.6965 24.1954 51.9877 24.1954C52.3094 24.1954 52.5909 24.2495 52.8322 24.3576C53.0735 24.4658 53.2732 24.6183 53.4313 24.8152C53.5921 25.0094 53.7114 25.2409 53.789 25.51C53.8695 25.779 53.9097 26.0757 53.9097 26.4002V26.8287H50.4319V26.109H52.9196V26.03C52.914 25.8497 52.878 25.6805 52.8114 25.5224C52.7476 25.3644 52.6492 25.2368 52.5161 25.1397C52.3829 25.0426 52.2054 24.9941 51.9836 24.9941C51.8172 24.9941 51.6688 25.0302 51.5384 25.1023C51.4109 25.1716 51.3041 25.2728 51.2181 25.406C51.1321 25.5391 51.0656 25.6999 51.0184 25.8885C50.9741 26.0743 50.9519 26.2837 50.9519 26.5167V26.6831C50.9519 26.88 50.9782 27.0631 51.0309 27.2322C51.0864 27.3986 51.1668 27.5442 51.2722 27.669C51.3776 27.7939 51.5052 27.8923 51.6549 27.9644C51.8047 28.0337 51.9753 28.0684 52.1666 28.0684C52.4079 28.0684 52.6228 28.0199 52.8114 27.9228C53 27.8257 53.1636 27.6885 53.3023 27.511L53.8306 28.0227C53.7336 28.1641 53.6074 28.3 53.4521 28.4303C53.2968 28.5579 53.1068 28.6619 52.8821 28.7424C52.6603 28.8228 52.4024 28.863 52.1084 28.863Z" fill="white"/>
<path d="M57.5165 22.3067H58.3277C58.3277 22.5535 58.293 22.7574 58.2237 22.9182C58.1571 23.0763 58.0573 23.2067 57.9242 23.3093C57.7938 23.4091 57.6316 23.4895 57.4374 23.5506C57.2461 23.6116 57.0242 23.667 56.7718 23.717C56.5389 23.7669 56.3281 23.8459 56.1395 23.9541C55.9537 24.0595 55.797 24.2079 55.6694 24.3992C55.5446 24.5878 55.4545 24.8305 55.399 25.1272C55.3435 25.424 55.3269 25.7859 55.3491 26.213V26.4959L54.5545 26.5666V26.2837C54.5545 25.754 54.603 25.2923 54.7001 24.8984C54.7972 24.5046 54.9345 24.1732 55.112 23.9042C55.2922 23.6324 55.5058 23.4161 55.7526 23.2552C56.0022 23.0943 56.2796 22.9834 56.5846 22.9224C56.7926 22.878 56.966 22.8336 57.1046 22.7893C57.2433 22.7421 57.3459 22.6825 57.4125 22.6104C57.4818 22.5355 57.5165 22.4343 57.5165 22.3067ZM56.8134 24.5323C57.113 24.5323 57.3792 24.585 57.6122 24.6904C57.8451 24.793 58.042 24.9373 58.2029 25.1231C58.3638 25.3089 58.4858 25.528 58.569 25.7804C58.655 26.0327 58.6979 26.3073 58.6979 26.6041V26.6956C58.6979 27.0062 58.6522 27.2933 58.5607 27.5567C58.4691 27.8202 58.3346 28.0504 58.1571 28.2473C57.9796 28.4414 57.7619 28.594 57.504 28.7049C57.2489 28.8131 56.9563 28.8672 56.6262 28.8672C56.299 28.8672 56.0064 28.8103 55.7484 28.6966C55.4905 28.5829 55.2728 28.4248 55.0953 28.2223C54.9178 28.0171 54.7833 27.7772 54.6918 27.5026C54.6003 27.2281 54.5545 26.9286 54.5545 26.6041V26.5125C54.5517 26.4543 54.567 26.3974 54.6003 26.342C54.6363 26.2865 54.6793 26.2269 54.7292 26.1631C54.7791 26.0993 54.8235 26.0258 54.8624 25.9426C55.001 25.6625 55.1646 25.4171 55.3532 25.2063C55.5418 24.9955 55.7568 24.8305 55.9981 24.7112C56.2421 24.592 56.5139 24.5323 56.8134 24.5323ZM56.6179 25.3269C56.3683 25.3269 56.1645 25.3865 56.0064 25.5058C55.8511 25.6223 55.736 25.7776 55.6611 25.9717C55.589 26.1659 55.5529 26.3766 55.5529 26.6041V26.6956C55.5529 26.8814 55.5737 27.0575 55.6153 27.2239C55.6569 27.3903 55.7193 27.5373 55.8025 27.6649C55.8885 27.7897 55.9994 27.8881 56.1353 27.9603C56.274 28.0324 56.4376 28.0684 56.6262 28.0684C56.8176 28.0684 56.9798 28.0324 57.113 27.9603C57.2489 27.8881 57.3584 27.7897 57.4416 27.6649C57.5276 27.5373 57.59 27.3903 57.6288 27.2239C57.6704 27.0575 57.6912 26.8814 57.6912 26.6956V26.6041C57.6912 26.4321 57.6704 26.2699 57.6288 26.1173C57.59 25.9648 57.5276 25.8303 57.4416 25.7138C57.3556 25.5946 57.2447 25.5003 57.1088 25.4309C56.9729 25.3616 56.8093 25.3269 56.6179 25.3269Z" fill="white"/>
<path d="M62.5086 24.2786V25.0773H60.3121V24.2786H62.5086ZM63.2948 24.2786V28.7798H62.2923V24.2786H63.2948ZM60.0666 24.2786H61.0567L60.9361 26.5042C60.9194 26.8343 60.8862 27.1255 60.8362 27.3778C60.7891 27.6274 60.7253 27.8424 60.6449 28.0227C60.5644 28.2002 60.466 28.3444 60.3495 28.4553C60.233 28.5662 60.0971 28.6481 59.9418 28.7007C59.7865 28.7534 59.6118 28.7798 59.4176 28.7798H59.1056L59.1015 27.9561L59.2596 27.9436C59.3622 27.9353 59.4509 27.9089 59.5258 27.8646C59.6007 27.8174 59.6645 27.7509 59.7172 27.6649C59.7726 27.5789 59.817 27.468 59.8503 27.3321C59.8863 27.1962 59.9141 27.0353 59.9335 26.8495C59.9557 26.6637 59.9723 26.4474 59.9834 26.2005L60.0666 24.2786Z" fill="white"/>
<path d="M66.3442 28.863C66.0114 28.863 65.7105 28.8089 65.4414 28.7007C65.1752 28.5898 64.9478 28.4359 64.7592 28.239C64.5734 28.0421 64.4305 27.8105 64.3307 27.5442C64.2309 27.278 64.1809 26.991 64.1809 26.6831V26.5167C64.1809 26.1645 64.2323 25.8455 64.3349 25.5599C64.4375 25.2742 64.5803 25.0302 64.7634 24.8277C64.9464 24.6225 65.1627 24.4658 65.4123 24.3576C65.6619 24.2495 65.9323 24.1954 66.2235 24.1954C66.5453 24.1954 66.8268 24.2495 67.068 24.3576C67.3093 24.4658 67.509 24.6183 67.6671 24.8152C67.8279 25.0094 67.9472 25.2409 68.0249 25.51C68.1053 25.779 68.1455 26.0757 68.1455 26.4002V26.8287H64.6677V26.109H67.1554V26.03C67.1499 25.8497 67.1138 25.6805 67.0472 25.5224C66.9835 25.3644 66.885 25.2368 66.7519 25.1397C66.6188 25.0426 66.4413 24.9941 66.2194 24.9941C66.053 24.9941 65.9046 25.0302 65.7743 25.1023C65.6467 25.1716 65.5399 25.2728 65.4539 25.406C65.368 25.5391 65.3014 25.6999 65.2542 25.8885C65.2099 26.0743 65.1877 26.2837 65.1877 26.5167V26.6831C65.1877 26.88 65.214 27.0631 65.2667 27.2322C65.3222 27.3986 65.4026 27.5442 65.508 27.669C65.6134 27.7939 65.741 27.8923 65.8907 27.9644C66.0405 28.0337 66.2111 28.0684 66.4024 28.0684C66.6437 28.0684 66.8587 28.0199 67.0472 27.9228C67.2358 27.8257 67.3995 27.6885 67.5381 27.511L68.0665 28.0227C67.9694 28.1641 67.8432 28.3 67.6879 28.4303C67.5326 28.5579 67.3426 28.6619 67.118 28.7424C66.8961 28.8228 66.6382 28.863 66.3442 28.863Z" fill="white"/>
<path d="M72.0019 26.1589V26.9494H69.6723V26.1589H72.0019ZM69.9635 24.2786V28.7798H68.9609V24.2786H69.9635ZM72.7258 24.2786V28.7798H71.7232V24.2786H72.7258Z" fill="white"/>
<path d="M74.8308 27.3154L76.5988 24.2786H77.6014V28.7798H76.5988V25.7388L74.8308 28.7798H73.8282V24.2786H74.8308V27.3154Z" fill="white"/>
<path d="M80.6466 28.863C80.3138 28.863 80.0128 28.8089 79.7438 28.7007C79.4776 28.5898 79.2502 28.4359 79.0616 28.239C78.8758 28.0421 78.7329 27.8105 78.6331 27.5442C78.5332 27.278 78.4833 26.991 78.4833 26.6831V26.5167C78.4833 26.1645 78.5346 25.8455 78.6372 25.5599C78.7399 25.2742 78.8827 25.0302 79.0657 24.8277C79.2488 24.6225 79.4651 24.4658 79.7147 24.3576C79.9643 24.2495 80.2347 24.1954 80.5259 24.1954C80.8476 24.1954 81.1291 24.2495 81.3704 24.3576C81.6117 24.4658 81.8114 24.6183 81.9695 24.8152C82.1303 25.0094 82.2496 25.2409 82.3272 25.51C82.4077 25.779 82.4479 26.0757 82.4479 26.4002V26.8287H78.97V26.109H81.4578V26.03C81.4522 25.8497 81.4162 25.6805 81.3496 25.5224C81.2858 25.3644 81.1874 25.2368 81.0542 25.1397C80.9211 25.0426 80.7436 24.9941 80.5218 24.9941C80.3554 24.9941 80.207 25.0302 80.0766 25.1023C79.9491 25.1716 79.8423 25.2728 79.7563 25.406C79.6703 25.5391 79.6038 25.6999 79.5566 25.8885C79.5122 26.0743 79.4901 26.2837 79.4901 26.5167V26.6831C79.4901 26.88 79.5164 27.0631 79.5691 27.2322C79.6246 27.3986 79.705 27.5442 79.8104 27.669C79.9158 27.7939 80.0434 27.8923 80.1931 27.9644C80.3429 28.0337 80.5134 28.0684 80.7048 28.0684C80.9461 28.0684 81.161 28.0199 81.3496 27.9228C81.5382 27.8257 81.7018 27.6885 81.8405 27.511L82.3688 28.0227C82.2718 28.1641 82.1456 28.3 81.9903 28.4303C81.835 28.5579 81.645 28.6619 81.4203 28.7424C81.1985 28.8228 80.9405 28.863 80.6466 28.863Z" fill="white"/>
<path d="M35.1909 42.9824C34.8003 42.5919 34.1672 42.5919 33.7767 42.9824L27.4127 49.3464C27.0222 49.7369 27.0222 50.3701 27.4127 50.7606C27.8032 51.1511 28.4364 51.1511 28.8269 50.7606L34.4838 45.1038L40.1406 50.7606C40.5311 51.1511 41.1643 51.1511 41.5548 50.7606C41.9454 50.3701 41.9454 49.7369 41.5548 49.3464L35.1909 42.9824ZM33.4838 43.6895L33.4838 130.166L35.4838 130.166L35.4838 43.6895L33.4838 43.6895Z" fill="black"/>
<path d="M243.075 130.873C243.466 130.483 243.466 129.849 243.075 129.459L236.711 123.095C236.321 122.704 235.688 122.704 235.297 123.095C234.907 123.486 234.907 124.119 235.297 124.509L240.954 130.166L235.297 135.823C234.907 136.213 234.907 136.847 235.297 137.237C235.688 137.628 236.321 137.628 236.711 137.237L243.075 130.873ZM242.368 129.166L34.0577 129.166V131.166L242.368 131.166V129.166Z" fill="black"/>
<path d="M34.4838 86.5018L52.1625 72.657L76.0181 87.5668L97.7437 89.0578L121.386 73.296L141.408 75.852L153.123 92.8917L184.22 75.852L202.112 95.8737L224.477 86.5018" stroke="black" stroke-width="3"/>
<circle cx="52.3755" cy="72.6571" r="1" fill="white" stroke="black" stroke-width="1.40794"/>
<circle cx="76.2311" cy="87.5668" r="1" fill="white" stroke="black" stroke-width="1.40794"/>
<circle cx="97.9567" cy="88.8448" r="1" fill="white" stroke="black" stroke-width="1.40794"/>
<circle cx="121.386" cy="73.509" r="1" fill="white" stroke="black" stroke-width="1.40794"/>
<circle cx="141.408" cy="76.065" r="1" fill="white" stroke="black" stroke-width="1.40794"/>
<circle cx="153.336" cy="92.6787" r="1" fill="white" stroke="black" stroke-width="1.40794"/>
<circle cx="202.325" cy="95.6607" r="1" fill="white" stroke="black" stroke-width="1.40794"/>
<circle cx="184.433" cy="76.065" r="1" fill="white" stroke="black" stroke-width="1.40794"/>
<circle cx="224.477" cy="86.2888" r="1" fill="white" stroke="black" stroke-width="1.40794"/>
<defs>
<filter id="filter0_d_1_646" x="0" y="0" width="276" height="166.094" filterUnits="userSpaceOnUse" color-interpolation-filters="sRGB">
<feFlood flood-opacity="0" result="BackgroundImageFix"/>
<feColorMatrix in="SourceAlpha" type="matrix" values="0 0 0 0 0 0 0 0 0 0 0 0 0 0 0 0 0 0 127 0" result="hardAlpha"/>
<feOffset dy="4"/>
<feGaussianBlur stdDeviation="10"/>
<feComposite in2="hardAlpha" operator="out"/>
<feColorMatrix type="matrix" values="0 0 0 0 0 0 0 0 0 0 0 0 0 0 0 0 0 0 0.07 0"/>
<feBlend mode="normal" in2="BackgroundImageFix" result="effect1_dropShadow_1_646"/>
<feBlend mode="normal" in="SourceGraphic" in2="effect1_dropShadow_1_646" result="shape"/>
</filter>
<filter id="filter1_d_1_646" x="0" y="0" width="276" height="59.1697" filterUnits="userSpaceOnUse" color-interpolation-filters="sRGB">
<feFlood flood-opacity="0" result="BackgroundImageFix"/>
<feColorMatrix in="SourceAlpha" type="matrix" values="0 0 0 0 0 0 0 0 0 0 0 0 0 0 0 0 0 0 127 0" result="hardAlpha"/>
<feOffset dy="4"/>
<feGaussianBlur stdDeviation="10"/>
<feComposite in2="hardAlpha" operator="out"/>
<feColorMatrix type="matrix" values="0 0 0 0 0 0 0 0 0 0 0 0 0 0 0 0 0 0 0.07 0"/>
<feBlend mode="normal" in2="BackgroundImageFix" result="effect1_dropShadow_1_646"/>
<feBlend mode="normal" in="SourceGraphic" in2="effect1_dropShadow_1_646" result="shape"/>
</filter>
</defs>
</svg>
